<svg width="120" height="50" viewBox="0 0 120 50" fill="none" xmlns="http://www.w3.org/2000/svg">
<g clip-path="url(#clip0_44_1281)">
<path d="M50.9868 0H3.99649C1.78929 0 0 1.7815 0 3.9791V34.3262C0 36.5238 1.78929 38.3053 3.99649 38.3053H50.9868C53.194 38.3053 54.9833 36.5238 54.9833 34.3262V3.9791C54.9833 1.7815 53.194 0 50.9868 0Z" fill="#0D147F"/>
<path d="M5.95728 5.84717H9.62345V32.4577H5.95728V5.84717ZM7.36987 17.4416H14.1658C15.3113 17.4416 16.3233 17.3343 17.2018 17.1174C18.0803 16.9028 18.8182 16.6043 19.4155 16.2241C20.0129 15.8439 20.458 15.3867 20.7508 14.855C21.0437 14.3232 21.1889 13.7517 21.1889 13.1453C21.1889 12.4619 21.0811 11.8648 20.8633 11.3587C20.6478 10.8525 20.2847 10.421 19.774 10.0665C19.2656 9.71198 18.6097 9.44609 17.8085 9.26882C17.0073 9.09156 16.0071 9.00293 14.8123 9.00293H7.3277V5.84717H14.7725C16.5529 5.84717 18.0943 5.99878 19.3921 6.30432C20.6899 6.60754 21.7605 7.05303 22.5991 7.6338C23.4401 8.2169 24.0633 8.95161 24.4709 9.83793C24.8785 10.7242 25.0823 11.7528 25.0823 12.9167C25.0823 14.3605 24.663 15.592 23.822 16.6043C22.981 17.6189 21.8097 18.4166 20.3081 18.9997L20.2706 18.202C21.3388 18.4562 22.2876 18.7711 23.1145 19.1513C23.9415 19.5315 24.6349 19.9933 25.1948 20.5391C25.7546 21.0848 26.181 21.7169 26.4738 22.44C26.7666 23.163 26.9119 23.9677 26.9119 24.854C26.9119 26.0459 26.6495 27.1165 26.1295 28.0658C25.6071 29.0151 24.8434 29.8151 23.8384 30.4612C22.8334 31.1072 21.5989 31.6017 20.1347 31.9446C18.6706 32.2874 16.9839 32.4577 15.0747 32.4577H7.59007V29.3019H14.8826C17.4524 29.3019 19.4577 28.9218 20.8961 28.1614C22.3344 27.401 23.0536 26.2978 23.0536 24.854C23.0536 23.3076 22.3274 22.1624 20.8773 21.4137C19.4273 20.6673 17.2885 20.2918 14.4633 20.2918H7.3605V17.4416H7.36987Z" fill="#E4EFF9"/>
<path d="M29.21 5.84717H32.8761V32.4577H29.21V5.84717ZM30.393 18.925H38.2969C40.3842 18.925 42.0451 18.5005 43.2797 17.6515C44.5142 16.8025 45.1327 15.592 45.1327 14.02C45.1327 12.4479 44.5142 11.1557 43.2797 10.2951C42.0451 9.43442 40.3842 9.00293 38.2969 9.00293H30.2782V5.84717H37.723C39.6064 5.84717 41.2556 6.03143 42.6682 6.39762C44.0808 6.76614 45.2592 7.29793 46.2009 7.99532C47.1426 8.69271 47.8477 9.54871 48.3209 10.561C48.7918 11.5756 49.0284 12.7161 49.0284 13.9826C49.0284 15.2491 48.7801 16.385 48.2835 17.3856C47.7868 18.3862 47.0817 19.2352 46.1634 19.9326C45.2474 20.63 44.1394 21.1618 42.8416 21.5303C41.5438 21.8989 40.0679 22.0808 38.4117 22.0808H30.393V18.925Z" fill="#E4EFF9"/>
<path d="M59.7482 5.84717H63.4144V32.4577H59.7482V5.84717ZM62.154 29.3019H77.5426V32.4577H62.154V29.3019Z" fill="#0D147F"/>
<path d="M78.4 18.8294C78.8709 17.6002 79.5127 16.5436 80.328 15.655C81.1432 14.7687 82.1037 14.0829 83.2117 13.6024C84.3198 13.122 85.5075 12.8794 86.7818 12.8794C87.7985 12.8794 88.7543 13.031 89.6445 13.3365C90.5347 13.6398 91.3054 14.0783 91.9543 14.6474C92.6032 15.2165 93.1186 15.9209 93.5004 16.7582C93.8823 17.5955 94.072 18.5448 94.072 19.6084V26.4144C94.072 27.429 93.8752 28.348 93.4793 29.1713C93.0834 29.9947 92.5564 30.6921 91.8957 31.2612C91.2328 31.8303 90.4574 32.2688 89.5672 32.572C88.6747 32.8752 87.747 33.0291 86.7795 33.0291C85.5051 33.0291 84.3174 32.7889 83.2094 32.3061C82.1013 31.8256 81.1408 31.1399 80.3256 30.2536C79.5104 29.3672 78.8685 28.3083 78.3977 27.0791C77.9268 25.85 77.6902 24.4762 77.6902 22.9554C77.6902 21.4347 77.9244 20.0609 78.3977 18.8317L78.4 18.8294ZM81.8366 25.7473C82.1294 26.5963 82.5441 27.3194 83.0782 27.9141C83.6123 28.5089 84.2495 28.9777 84.9874 29.3206C85.7253 29.6635 86.5523 29.8337 87.4706 29.8337C88.3889 29.8337 89.176 29.6635 89.9139 29.3206C90.6518 28.9777 91.282 28.5089 91.8044 27.9141C92.3268 27.3194 92.7344 26.5963 93.0272 25.7473C93.32 24.8983 93.4653 23.9537 93.4653 22.9158C93.4653 21.8779 93.3177 20.9775 93.0272 20.1402C92.7344 19.3029 92.3268 18.5891 91.8044 17.9921C91.282 17.3973 90.6518 16.9285 89.9139 16.5856C89.176 16.2427 88.3608 16.0725 87.4706 16.0725C86.5804 16.0725 85.7277 16.2427 84.9874 16.5856C84.2495 16.9285 83.6123 17.3973 83.0782 17.9921C82.5441 18.5868 82.1294 19.3029 81.8366 20.1402C81.5438 20.9775 81.3985 21.9012 81.3985 22.9158C81.3985 23.9304 81.5438 24.8983 81.8366 25.7473ZM93.4629 13.4485H96.9769V32.4554H93.4629V13.4485Z" fill="#0D147F"/>
<path d="M100.718 32.4577V5.84717H104.232V32.4577H100.718ZM119.293 27.0791C118.822 28.3083 118.184 29.3673 117.383 30.2536C116.582 31.1422 115.626 31.8256 114.521 32.3061C113.413 32.7866 112.223 33.0291 110.951 33.0291C109.957 33.0291 109.016 32.8775 108.125 32.572C107.235 32.2688 106.457 31.8303 105.797 31.2612C105.134 30.6921 104.607 30.0017 104.213 29.19C103.817 28.3783 103.621 27.4663 103.621 26.4517V19.7227C103.621 18.6591 103.817 17.7028 104.213 16.8515C104.607 16.0025 105.122 15.2865 105.759 14.7034C106.394 14.1202 107.165 13.6701 108.069 13.3529C108.973 13.0357 109.934 12.8771 110.953 12.8771C112.225 12.8771 113.415 13.1173 114.523 13.6001C115.631 14.0829 116.584 14.7663 117.386 15.6526C118.187 16.5413 118.824 17.5979 119.295 18.8271C119.766 20.0562 120.002 21.43 120.002 22.9508C120.002 24.4715 119.766 25.8476 119.295 27.0745L119.293 27.0791ZM115.856 20.1402C115.563 19.3029 115.155 18.5892 114.633 17.9921C114.111 17.3973 113.474 16.9285 112.724 16.5856C111.972 16.2427 111.152 16.0725 110.262 16.0725C109.372 16.0725 108.519 16.2427 107.781 16.5856C107.043 16.9285 106.413 17.3973 105.89 17.9921C105.368 18.5868 104.96 19.3029 104.668 20.1402C104.375 20.9775 104.23 21.9012 104.23 22.9158C104.23 23.9304 104.375 24.8983 104.668 25.7473C104.96 26.5963 105.368 27.3194 105.89 27.9142C106.413 28.5089 107.043 28.9777 107.781 29.3206C108.519 29.6635 109.346 29.8337 110.262 29.8337C111.178 29.8337 111.974 29.6635 112.724 29.3206C113.474 28.9777 114.111 28.5089 114.633 27.9142C115.155 27.3194 115.563 26.5963 115.856 25.7473C116.149 24.8983 116.294 23.9537 116.294 22.9158C116.294 21.8779 116.146 20.9775 115.856 20.1402Z" fill="#0D147F"/>
<path d="M10.6026 48.9899C10.5276 49.1205 10.4363 49.2465 10.3238 49.3701C10.2114 49.4937 10.0732 49.601 9.90685 49.6943C9.74053 49.7876 9.54609 49.8622 9.3212 49.9182C9.09631 49.9742 8.83394 49.9998 8.53408 49.9998C8.14053 49.9998 7.78445 49.9322 7.4682 49.7969C7.15195 49.6616 6.87786 49.4681 6.65063 49.2162C6.4234 48.9666 6.2477 48.6634 6.12354 48.3112C5.99938 47.959 5.93848 47.5695 5.93848 47.1403C5.93848 46.7111 5.99704 46.3216 6.11183 45.9694C6.22662 45.6172 6.39294 45.3164 6.60846 45.0645C6.82398 44.8126 7.08401 44.6213 7.39089 44.4837C7.69777 44.3484 8.04682 44.2808 8.44038 44.2808C8.86439 44.2808 9.22984 44.3437 9.53438 44.4697C9.83892 44.5956 10.0685 44.7636 10.2278 44.9782L9.4805 45.5659C9.36102 45.4446 9.21578 45.3537 9.04477 45.2907C8.87376 45.2277 8.6887 45.1974 8.48957 45.1974C8.22252 45.1974 7.99528 45.2487 7.81022 45.3513C7.62281 45.454 7.47288 45.5916 7.3581 45.7665C7.24331 45.9414 7.15897 46.1467 7.10978 46.3823C7.06058 46.6178 7.03482 46.8697 7.03482 47.1426C7.03482 47.4155 7.06761 47.6604 7.13321 47.8983C7.1988 48.1362 7.29953 48.3415 7.43306 48.5164C7.56659 48.6914 7.73291 48.829 7.93203 48.9316C8.13116 49.0342 8.36073 49.0855 8.6231 49.0855C8.90656 49.0855 9.13613 49.0389 9.31417 48.9479C9.49221 48.857 9.64682 48.7217 9.77801 48.5444L10.6049 48.9899H10.6026Z" fill="#0D147F"/>
<path d="M11.4718 45.9694C11.6006 45.6172 11.7833 45.3164 12.0176 45.0645C12.2542 44.8126 12.5376 44.6213 12.8679 44.4837C13.1983 44.3484 13.566 44.2808 13.969 44.2808C14.3719 44.2808 14.7327 44.3484 15.0653 44.4837C15.398 44.619 15.6814 44.8126 15.9157 45.0645C16.1499 45.314 16.3303 45.6172 16.4592 45.9694C16.588 46.3216 16.6513 46.7135 16.6513 47.1403C16.6513 47.5671 16.5857 47.959 16.4592 48.3112C16.3303 48.6634 16.1499 48.9642 15.9157 49.2162C15.6814 49.4681 15.398 49.6593 15.0653 49.7969C14.7327 49.9322 14.3672 49.9998 13.969 49.9998C13.5707 49.9998 13.1983 49.9322 12.8679 49.7969C12.5376 49.6616 12.2542 49.4681 12.0176 49.2162C11.781 48.9666 11.5983 48.6634 11.4718 48.3112C11.3453 47.959 11.2797 47.5695 11.2797 47.1403C11.2797 46.7111 11.3429 46.3216 11.4718 45.9694ZM12.4861 47.9403C12.5634 48.1806 12.6688 48.3858 12.8094 48.5561C12.9476 48.7263 13.1163 48.857 13.313 48.9479C13.5098 49.0389 13.7277 49.0855 13.969 49.0855C14.2103 49.0855 14.4305 49.0389 14.6249 48.9479C14.8217 48.857 14.988 48.7263 15.1286 48.5561C15.2691 48.3858 15.3745 48.1806 15.4472 47.9403C15.5198 47.7001 15.5573 47.4342 15.5573 47.1426C15.5573 46.8511 15.5198 46.5782 15.4472 46.3403C15.3722 46.1024 15.2668 45.8995 15.1286 45.7292C14.9904 45.5589 14.8217 45.4283 14.6249 45.3373C14.4281 45.2464 14.2103 45.1997 13.969 45.1997C13.7277 45.1997 13.5098 45.2464 13.313 45.3373C13.1163 45.4283 12.9476 45.5589 12.8094 45.7292C12.6712 45.8995 12.5634 46.1024 12.4861 46.3403C12.4111 46.5782 12.3713 46.8464 12.3713 47.1426C12.3713 47.4389 12.4088 47.7024 12.4861 47.9403Z" fill="#0D147F"/>
<path d="M17.6749 44.3999H18.7291V49.8811H17.6749V44.3999ZM18.7291 44.3999L21.0272 48.3394L20.9803 49.0531H20.2495L17.8975 45.0273L17.6773 44.3999H18.7314H18.7291ZM23.33 45.0273L20.978 49.0531H20.2471L20.2003 48.3394L22.496 44.3999H23.5502L23.33 45.0273ZM22.496 49.8811V44.3999H23.5502V49.8811H22.496Z" fill="#0D147F"/>
<path d="M24.5715 44.3999H25.6257V49.8811H24.5715V44.3999ZM24.9651 46.9935H26.4667C26.8439 46.9935 27.1484 46.9189 27.3756 46.7696C27.6029 46.6204 27.7177 46.4104 27.7177 46.1399C27.7177 45.8693 27.6029 45.6501 27.3756 45.5008C27.1484 45.3515 26.8415 45.2769 26.4597 45.2769H24.9417V44.3999H26.4292C26.8064 44.3999 27.1437 44.4396 27.4389 44.5165C27.7364 44.5958 27.9847 44.7078 28.1862 44.8571C28.3876 45.0063 28.5423 45.1883 28.6453 45.4005C28.7507 45.6151 28.8023 45.86 28.8023 46.1376C28.8023 46.4151 28.7484 46.6437 28.6406 46.8583C28.5329 47.0728 28.3806 47.2548 28.1815 47.4017C27.9824 47.551 27.7411 47.663 27.4576 47.7423C27.1742 47.8216 26.8579 47.8589 26.5065 47.8589H24.9651V46.9889V46.9935Z" fill="#0D147F"/>
<path d="M29.826 44.3999H30.8802V49.8811H29.826V44.3999ZM30.4726 49.0041H33.5789V49.8811H30.4726V49.0041Z" fill="#0D147F"/>
<path d="M34.5768 44.3999H35.631V49.8811H34.5768V44.3999ZM35.1203 44.3999H38.3601V45.2769H35.1203V44.3999ZM35.1203 46.7486H37.8892V47.523H35.1203V46.7486ZM35.1203 49.0041H38.517V49.8811H35.1203V49.0041Z" fill="#0D147F"/>
<path d="M39.5408 44.3999H43.8207V45.2769H39.5408V44.3999ZM41.1525 44.3999H42.2067V49.8811H41.1525V44.3999Z" fill="#0D147F"/>
<path d="M44.8422 44.3999H45.8963V49.8811H44.8422V44.3999ZM45.3856 44.3999H48.6255V45.2769H45.3856V44.3999ZM45.3856 46.7486H48.1546V47.523H45.3856V46.7486ZM45.3856 49.0041H48.7824V49.8811H45.3856V49.0041Z" fill="#0D147F"/>
<path d="M55.1894 45.9694C55.3182 45.6172 55.501 45.3164 55.7352 45.0645C55.9718 44.8126 56.2553 44.6213 56.5856 44.4837C56.9159 44.3484 57.2837 44.2808 57.6866 44.2808C58.0896 44.2808 58.4503 44.3484 58.783 44.4837C59.1156 44.619 59.3991 44.8126 59.6333 45.0645C59.8676 45.314 60.048 45.6172 60.1768 45.9694C60.3057 46.3216 60.3689 46.7135 60.3689 47.1403C60.3689 47.5671 60.3033 47.959 60.1768 48.3112C60.048 48.6634 59.8676 48.9642 59.6333 49.2162C59.3991 49.4681 59.1156 49.6593 58.783 49.7969C58.4503 49.9322 58.0849 49.9998 57.6866 49.9998C57.2884 49.9998 56.9159 49.9322 56.5856 49.7969C56.2553 49.6616 55.9718 49.4681 55.7352 49.2162C55.4986 48.9666 55.3159 48.6634 55.1894 48.3112C55.0629 47.959 54.9973 47.5695 54.9973 47.1403C54.9973 46.7111 55.0606 46.3216 55.1894 45.9694ZM56.2038 47.9403C56.2811 48.1806 56.3865 48.3858 56.527 48.5561C56.6676 48.7263 56.8339 48.857 57.0307 48.9479C57.2275 49.0389 57.4453 49.0855 57.6866 49.0855C57.9279 49.0855 58.1481 49.0389 58.3426 48.9479C58.5393 48.857 58.7057 48.7263 58.8462 48.5561C58.9868 48.3858 59.0922 48.1806 59.1648 47.9403C59.2374 47.7001 59.2749 47.4342 59.2749 47.1426C59.2749 46.8511 59.2374 46.5782 59.1648 46.3403C59.0898 46.1024 58.9844 45.8995 58.8462 45.7292C58.708 45.5589 58.5393 45.4283 58.3426 45.3373C58.1458 45.2464 57.9279 45.1997 57.6866 45.1997C57.4453 45.1997 57.2275 45.2464 57.0307 45.3373C56.8339 45.4283 56.6652 45.5589 56.527 45.7292C56.3888 45.8995 56.2811 46.1024 56.2038 46.3403C56.1288 46.5782 56.089 46.8464 56.089 47.1426C56.089 47.4389 56.1264 47.7024 56.2038 47.9403Z" fill="#0D147F"/>
<path d="M61.3903 44.3999H62.4444V49.8811H61.3903V44.3999ZM61.9337 44.3999H65.1736V45.2769H61.9337V44.3999ZM61.9337 46.7486H64.7027V47.523H61.9337V46.7486ZM61.9337 49.0041H65.3305V49.8811H61.9337V49.0041Z" fill="#0D147F"/>
<path d="M66.3542 44.3999H67.4084V49.8811H66.3542V44.3999ZM67.4084 44.3999L69.7065 48.3394L69.6597 49.0531H68.9288L66.5768 45.0273L66.3566 44.3999H67.4108H67.4084ZM72.0093 45.0273L69.6573 49.0531H68.9264L68.8796 48.3394L71.1753 44.3999H72.2295L72.0093 45.0273ZM71.1753 49.8811V44.3999H72.2295V49.8811H71.1753Z" fill="#0D147F"/>
<path d="M78.4445 44.3999H79.4986V49.8811H78.4445V44.3999ZM78.838 46.9935H80.3396C80.7168 46.9935 81.0213 46.9189 81.2486 46.7696C81.4758 46.6204 81.5906 46.4104 81.5906 46.1399C81.5906 45.8693 81.4758 45.6501 81.2486 45.5008C81.0213 45.3515 80.7144 45.2769 80.3326 45.2769H78.8146V44.3999H80.3022C80.6793 44.3999 81.0166 44.4396 81.3118 44.5165C81.6093 44.5958 81.8576 44.7078 82.0591 44.8571C82.2606 45.0063 82.4152 45.1883 82.5183 45.4005C82.6213 45.6128 82.6752 45.86 82.6752 46.1376C82.6752 46.4151 82.6213 46.6437 82.5136 46.8583C82.4058 47.0728 82.2535 47.2548 82.0544 47.4017C81.8553 47.551 81.614 47.663 81.3306 47.7423C81.0471 47.8216 80.7308 47.8589 80.3795 47.8589H78.838V46.9889V46.9935Z" fill="#0D147F"/>
<path d="M85.0202 44.3999H85.8143L85.7112 45.1276L83.8231 49.8811H82.7455L85.0178 44.3999H85.0202ZM83.7387 47.9708H87.0582V48.7452H83.7387V47.9708ZM87.0184 49.8811L85.1303 45.1276L85.0202 44.3999H85.8143L88.096 49.8811H87.0184Z" fill="#0D147F"/>
<path d="M88.8105 44.3998H89.8647V49.881H88.8105V44.3998ZM89.2041 46.8908H90.7057C91.0829 46.8908 91.3874 46.8208 91.6146 46.6832C91.8419 46.5456 91.9567 46.3474 91.9567 46.0908C91.9567 45.8342 91.8419 45.629 91.6146 45.4867C91.3874 45.3444 91.0805 45.2744 90.6987 45.2744H89.1807V44.3975H90.6682C91.0454 44.3975 91.3827 44.4348 91.6779 44.5117C91.9754 44.5864 92.2237 44.6983 92.4252 44.8453C92.6267 44.9922 92.7813 45.1672 92.8843 45.3724C92.9898 45.58 93.0413 45.8156 93.0413 46.0815C93.0413 46.3474 92.9874 46.5853 92.8797 46.7905C92.7719 46.9958 92.6196 47.1707 92.4205 47.3153C92.2214 47.4599 91.9801 47.5695 91.6966 47.6442C91.4132 47.7212 91.0969 47.7585 90.7455 47.7585H89.2041V46.8885V46.8908ZM90.3848 47.2034H91.5725L93.2311 49.881H92.0433L90.3848 47.2034Z" fill="#0D147F"/>
<path d="M93.7581 44.3999H98.038V45.2769H93.7581V44.3999ZM95.3721 44.3999H96.4263V49.8811H95.3721V44.3999Z" fill="#0D147F"/>
<path d="M100.114 44.3998L103.417 49.3095L103.653 49.881H102.552L99.2797 45.0249L99.0594 44.3975H100.114V44.3998ZM99.0594 44.3998H100.114V49.881H99.0594V44.3998ZM102.599 44.3998H103.653V49.881H102.599V44.3998Z" fill="#0D147F"/>
<path d="M104.677 44.3999H105.731V49.8811H104.677V44.3999ZM105.218 44.3999H108.458V45.2769H105.218V44.3999ZM105.218 46.7486H107.987V47.523H105.218V46.7486ZM105.218 49.0041H108.615V49.8811H105.218V49.0041Z" fill="#0D147F"/>
<path d="M109.639 44.3998H110.693V49.881H109.639V44.3998ZM110.032 46.8908H111.534C111.911 46.8908 112.216 46.8208 112.443 46.6832C112.67 46.5456 112.785 46.3474 112.785 46.0908C112.785 45.8342 112.67 45.629 112.443 45.4867C112.216 45.3444 111.909 45.2744 111.527 45.2744H110.009V44.3975H111.496C111.874 44.3975 112.211 44.4348 112.506 44.5117C112.804 44.5864 113.052 44.6983 113.253 44.8453C113.455 44.9922 113.609 45.1672 113.712 45.3724C113.818 45.58 113.869 45.8156 113.869 46.0815C113.869 46.3474 113.816 46.5853 113.708 46.7905C113.6 46.9958 113.448 47.1707 113.249 47.3153C113.05 47.4599 112.808 47.5695 112.525 47.6442C112.241 47.7212 111.925 47.7585 111.574 47.7585H110.032V46.8885V46.8908ZM111.213 47.2034H112.401L114.059 49.881H112.871L111.213 47.2034Z" fill="#0D147F"/>
</g>
<defs>
<clipPath id="clip0_44_1281">
<rect width="120" height="50" fill="white"/>
</clipPath>
</defs>
</svg>
